<svg xmlns="http://www.w3.org/2000/svg" xmlns:xlink="http://www.w3.org/1999/xlink" width="204.756" height="169.054" viewBox="0 0 54.175 44.729"><defs><linearGradient id="oj1z" x1="529.623" y1="612.178" x2="517.779" y2="543.588" xlink:href="#Cuv7"><stop offset="0" stop-color="#d45500"/><stop offset=".513" stop-color="#ff0"/><stop offset="1" stop-color="#ff0" stop-opacity="0"/></linearGradient><linearGradient id="EJkS" x1="122.568" y1="163.909" x2="129.514" y2="163.777" xlink:href="#Cuv7"><stop offset="0" stop-color="#d45500"/><stop offset=".856" stop-color="#ff0"/><stop offset="1" stop-color="#ff0" stop-opacity="0"/></linearGradient><linearGradient id="YkSL" x1="117.607" y1="157.361" x2="130.572" y2="160.602" xlink:href="#Cuv7"><stop offset="0" stop-color="#d45500"/><stop offset=".362" stop-color="#ff0"/><stop offset="1" stop-color="#ff0" stop-opacity="0"/></linearGradient><linearGradient id="vRyZ" x1="124.949" y1="153.988" x2="128.257" y2="155.84" xlink:href="#Cuv7"><stop offset="0" stop-color="#d45500"/><stop offset=".383" stop-color="#ff0" stop-opacity=".616"/><stop offset="1" stop-color="#ff0" stop-opacity="0"/></linearGradient><linearGradient id="kXK3" x1="123.825" y1="146.248" x2="130.175" y2="152.268" xlink:href="#Cuv7"><stop offset="0" stop-color="#d45500"/><stop offset=".321" stop-color="#ff0"/><stop offset="1" stop-color="#ff0" stop-opacity="0"/></linearGradient><linearGradient id="epHj" x1="131.961" y1="147.042" x2="133.152" y2="148.96" xlink:href="#Cuv7"><stop offset="0" stop-color="#d45500"/><stop offset=".512" stop-color="#ff0"/><stop offset="1" stop-color="#ff0" stop-opacity="0"/></linearGradient><linearGradient id="oGav" x1="134.607" y1="139.435" x2="137.12" y2="147.704" xlink:href="#Cuv7"><stop offset="0" stop-color="#d45500"/><stop offset=".303" stop-color="#ff0"/><stop offset="1" stop-color="#ff0" stop-opacity="0"/></linearGradient><linearGradient id="D3aI" x1="141.221" y1="143.669" x2="141.221" y2="146.91" xlink:href="#Cuv7"><stop offset="0" stop-color="#d45500"/><stop offset=".429" stop-color="#ff0"/><stop offset="1" stop-color="#ff0" stop-opacity="0"/></linearGradient><linearGradient id="D7ux" x1="147.373" y1="138.179" x2="144.992" y2="148.431" xlink:href="#Cuv7"><stop offset="0" stop-color="#d45500"/><stop offset=".29" stop-color="#ff0"/><stop offset="1" stop-color="#ff0" stop-opacity="0"/></linearGradient><linearGradient id="Gr3z" x1="151.143" y1="145.124" x2="148.762" y2="149.886" xlink:href="#Cuv7"><stop offset="0" stop-color="#d45500"/><stop offset=".489" stop-color="#ff0"/><stop offset="1" stop-color="#ff0" stop-opacity="0"/></linearGradient><linearGradient id="NfyK" x1="159.411" y1="144.529" x2="151.342" y2="152.929" xlink:href="#Cuv7"><stop offset="0" stop-color="#d45500"/><stop offset=".402" stop-color="#ff0"/><stop offset="1" stop-color="#ff0" stop-opacity="0"/></linearGradient><linearGradient id="FHXc" x1="158.75" y1="152.731" x2="152.532" y2="156.832" xlink:href="#Cuv7"><stop offset="0" stop-color="#d45500"/><stop offset=".525" stop-color="#ff0"/><stop offset="1" stop-color="#ff0" stop-opacity="0"/></linearGradient><linearGradient id="tmgS" x1="137.833" y1="167.661" x2="157.816" y2="162.171" xlink:href="#Cuv7"><stop offset="0" stop-color="#0f0"/><stop offset="1" stop-color="green"/><stop offset="1" stop-color="#0f0" stop-opacity="0"/></linearGradient><filter id="eSym" x="0" width="1" y="0" height="1" color-interpolation-filters="sRGB"><feGaussianBlur stdDeviation=".002"/></filter><linearGradient id="AGM1" x1="112.977" y1="180.76" x2="185.222" y2="180.76" xlink:href="#Cuv7"><stop offset="0" stop-color="green"/><stop offset=".505" stop-color="#0f0"/><stop offset="1" stop-color="#0f0" stop-opacity="0"/></linearGradient><linearGradient id="Cuv7" gradientUnits="userSpaceOnUse"/></defs><g transform="translate(-112.574 -136.386)" filter="url(#eSym)"><path d="M529.977 555.432c-26.458 0-47.906 20.341-47.906 45.432 0 10.948 4.169 21.528 11.74 29.793 27.128-2.876 59.535-13.27 82.684-18.93.923-3.555 1.389-7.202 1.389-10.863 0-25.091-21.448-45.432-47.906-45.432z" transform="scale(.26458333)" fill="url(#oj1z)" paint-order="stroke fill markers"/><g stroke-width=".265"><path d="M160.121 161.574c-9.759-.786-28.926 9.026-38.306 4.771 22.9 8.272 25.892-4.224 38.306-4.771z" fill="url(#tmgS)" stroke="#000"/><g stroke="#501616"><path d="M153.097 157.903l6.127-5.426-6.735 3.181" fill="url(#FHXc)"/><path d="M152.466 154.914l7.805-11.509-9.723 8.136" fill="url(#NfyK)"/><path d="M149.49 150.349l1.918-5.49-3.241 4.564" fill="url(#Gr3z)"/><path d="M146.711 148.431l1.058-12.039-3.638 10.98" fill="url(#D7ux)"/><path d="M142.015 146.91l-.926-4.829-.463 4.696" fill="url(#D3aI)"/><path d="M138.112 146.844l-4.233-9.988 1.72 10.782" fill="url(#oGav)"/><path d="M133.284 148.497c-.265-.661-2.315-3.109-2.315-3.109l1.654 3.704" fill="url(#epHj)"/><path d="M130.572 150.879l-8.599-6.416 6.945 8.533" fill="url(#kXK3)"/><path d="M128.124 154.98l-4.696-1.786 4.299 3.175" fill="url(#vRyZ)"/><path d="M127.397 158.485l-11.906-1.654 12.105 4.829" fill="url(#YkSL)"/><path d="M128.124 162.851l-6.548 1.058 7.342.992" fill="url(#EJkS)"/></g></g><text xml:space="preserve" x="113.125" y="176.365" transform="scale(.9969029 1.0031067)" font-size="5.49" font-family="sans-serif"><tspan x="113.125" y="176.365">Golden Day Limited</tspan></text><path d="M112.613 181.107h54.129v-.66h-54.162z" fill="url(#AGM1)"/></g></svg>